<svg viewBox="0 0 1440 320" width="1440" height="320" xmlns="http://www.w3.org/2000/svg"><defs><style type="text/css">.hi{font:normal 50px Bangers;fill:var(--color-text-primary)}.name{font:normal 86px bangers;fill:#2283d2}.wave1{animation:wave 8s linear infinite}.wave2{animation:wave2 12s linear infinite}.wave3{animation:wave3 10s linear infinite}@keyframes wave{0%{transform:translateX(0)}100%{transform:translateX(100%)}}@keyframes wave2{0%{transform:scaleY(1.2) translateX(0)}100%{transform:scaleY(1.2) translateX(100%)}}@keyframes wave3{0%{transform:scaleY(.8) translateX(0)}100%{transform:scaleY(.8) translateX(100%)}}</style></defs><def><path id='sinewave' fill="#0099ff" fill-opacity="0.2" d="M0,160 C320,300,420,300,740,160 C1060,20,1120,20,1440,160 V 0 H 0"></path></def><use href="#sinewave" x="-100%" class='wave1'/><use href="#sinewave" x="0%" class='wave1'/><use href="#sinewave" x="-100%" class='wave2'/><use href="#sinewave" x="0%" class='wave2'/><use href="#sinewave" x="-100%" class='wave3'/><use href="#sinewave" x="0%" class='wave3'/><def><g id="hi" stroke-linecap="round" fill-rule="evenodd" font-size="9pt" fill="#000"><path d="M 67.7 35.85 L 60 37.45 Q 61.4 30.45 62.7 23.8 Q 63.2 20.95 63.75 17.875 Q 64.3 14.8 64.775 11.8 A 774.173 774.173 0 0 0 65.568 6.684 A 705.665 705.665 0 0 0 65.675 5.975 A 148.384 148.384 0 0 0 66.056 3.281 A 108.21 108.21 0 0 0 66.35 0.85 A 72.455 72.455 0 0 1 67.456 0.906 A 56.75 56.75 0 0 1 68.475 0.975 Q 69.45 1.05 70.4 1.1 Q 71.35 1.15 72.325 1.175 A 73.559 73.559 0 0 0 73.344 1.194 A 94.144 94.144 0 0 0 74.45 1.2 Q 73.6 4.75 72.775 8.3 Q 71.95 11.85 71.25 15.45 L 76.2 14.9 A 233.551 233.551 0 0 0 77.166 9.702 A 209.812 209.812 0 0 0 77.45 8.025 Q 78 4.7 78.9 1.15 Q 80.05 0.95 81.45 0.825 A 497.571 497.571 0 0 1 82.8 0.706 A 394.786 394.786 0 0 1 84.05 0.6 A 388.184 388.184 0 0 0 84.897 0.529 Q 85.559 0.472 86.075 0.425 L 86.9 0.35 A 64.214 64.214 0 0 0 86.136 3.016 A 80.763 80.763 0 0 0 85.575 5.275 Q 84.95 7.95 84.35 10.825 Q 83.75 13.7 83.2 16.65 Q 82.65 19.6 82.2 22.25 Q 81.1 28.6 80.15 35.25 L 72.35 36.15 A 151.115 151.115 0 0 0 73.437 30.657 A 138.213 138.213 0 0 0 73.5 30.3 A 806.529 806.529 0 0 0 74.264 26.587 A 906.713 906.713 0 0 0 74.525 25.3 Q 74.886 23.513 75.141 22.079 A 83.027 83.027 0 0 0 75.35 20.85 L 70.5 21.3 Q 70.15 23.2 69.675 25.7 A 443.546 443.546 0 0 0 69.219 28.137 A 377.509 377.509 0 0 0 68.8 30.45 L 67.7 35.85 Z M 7.7 35.85 L 0 37.45 Q 1.3 30.55 2.55 23.9 A 280.022 280.022 0 0 1 3.281 19.573 A 315.794 315.794 0 0 1 3.55 18.075 Q 4.1 15.05 4.6 12.1 A 823.754 823.754 0 0 0 5.437 7.071 A 749.672 749.672 0 0 0 5.55 6.375 Q 6 3.6 6.35 1.3 L 14.45 0.75 A 297.896 297.896 0 0 0 13.189 6.169 A 333.9 333.9 0 0 0 12.775 8.05 A 349.687 349.687 0 0 0 11.338 14.999 A 319.91 319.91 0 0 0 11.25 15.45 L 16.2 14.9 A 233.551 233.551 0 0 0 17.166 9.702 A 209.812 209.812 0 0 0 17.45 8.025 Q 18 4.7 18.9 1.15 Q 20.05 0.95 21.45 0.825 A 497.571 497.571 0 0 1 22.8 0.706 A 394.786 394.786 0 0 1 24.05 0.6 A 388.184 388.184 0 0 0 24.897 0.529 Q 25.559 0.472 26.075 0.425 L 26.9 0.35 A 64.214 64.214 0 0 0 26.136 3.016 A 80.763 80.763 0 0 0 25.575 5.275 Q 24.95 7.95 24.35 10.825 Q 23.75 13.7 23.2 16.65 Q 22.65 19.6 22.2 22.25 Q 21.1 28.6 20.15 35.25 L 12.35 36.15 A 151.115 151.115 0 0 0 13.437 30.657 A 138.213 138.213 0 0 0 13.5 30.3 A 806.529 806.529 0 0 0 14.264 26.587 A 906.713 906.713 0 0 0 14.525 25.3 Q 14.886 23.513 15.141 22.079 A 83.027 83.027 0 0 0 15.35 20.85 L 10.5 21.3 Q 10.15 23.2 9.675 25.7 Q 9.2 28.2 8.8 30.45 L 7.7 35.85 Z M 107 35.3 L 98.9 37.4 Q 100.25 30.75 101.5 24.4 A 267.63 267.63 0 0 1 102.231 20.223 A 303.118 303.118 0 0 1 102.5 18.775 Q 103.05 15.85 103.525 12.975 Q 104 10.1 104.425 7.425 A 129.612 129.612 0 0 0 104.806 4.869 A 95.849 95.849 0 0 0 105.1 2.55 A 33.694 33.694 0 0 1 109.231 1.537 A 39.694 39.694 0 0 1 111.25 1.225 Q 114.55 0.8 117.8 0.8 A 13.973 13.973 0 0 1 119.114 0.858 Q 119.764 0.92 120.316 1.046 A 6.499 6.499 0 0 1 121.025 1.25 A 5.69 5.69 0 0 1 122.019 1.706 A 4.077 4.077 0 0 1 123.025 2.525 Q 123.75 3.35 124.05 4.45 A 8.331 8.331 0 0 1 124.293 5.767 A 10.777 10.777 0 0 1 124.35 6.9 Q 124.35 8.9 123.65 10.825 Q 122.95 12.75 121.775 14.475 Q 120.6 16.2 119.075 17.625 A 14.626 14.626 0 0 1 116.126 19.777 A 13.637 13.637 0 0 1 115.8 19.95 A 274.917 274.917 0 0 1 116.731 22.044 A 352.002 352.002 0 0 1 117.725 24.325 A 484.607 484.607 0 0 1 118.719 26.644 A 414.527 414.527 0 0 1 119.65 28.85 Q 120.65 31.35 121.7 33.85 L 113.95 36.55 Q 112.95 33.35 112.15 30.55 A 143.756 143.756 0 0 1 111.494 28.328 A 156.809 156.809 0 0 1 111.45 28.175 A 218.15 218.15 0 0 1 111.113 26.981 A 184.706 184.706 0 0 1 110.8 25.85 A 59.765 59.765 0 0 1 110.541 24.868 Q 110.423 24.406 110.327 23.992 A 34.904 34.904 0 0 1 110.3 23.875 A 18.062 18.062 0 0 1 110.19 23.36 Q 110.084 22.828 110.05 22.45 L 109.4 22.65 Q 109.1 24.25 108.675 26.4 A 198.478 198.478 0 0 0 108.08 29.541 A 176.835 176.835 0 0 0 107.9 30.55 Q 107.45 32.9 107 35.3 Z M 98.2 34.9 L 82.05 37.4 L 88.6 1.85 L 104.4 0.5 Q 104.05 1.6 103.8 2.75 A 48.691 48.691 0 0 0 103.382 4.47 A 53.71 53.71 0 0 0 103.325 4.725 A 75.643 75.643 0 0 0 103.142 5.579 Q 103.061 5.97 102.994 6.321 A 43.627 43.627 0 0 0 102.95 6.55 A 10.114 10.114 0 0 1 102.673 6.573 Q 102.219 6.606 101.525 6.625 Q 100.6 6.65 99.55 6.675 Q 98.5 6.7 97.425 6.7 L 95.55 6.7 L 93.8 15.65 Q 95.35 15.55 96.7 15.5 Q 97.8 15.45 98.95 15.45 Q 100.079 15.45 100.63 15.402 A 6.036 6.036 0 0 0 100.65 15.4 Q 100.45 16.8 100.275 18.15 Q 100.1 19.5 99.85 20.9 A 8.881 8.881 0 0 1 99.561 20.923 Q 99.093 20.955 98.308 20.973 A 63.227 63.227 0 0 1 98.225 20.975 Q 97.1 21 95.95 21.05 Q 94.65 21.1 93.1 21.15 L 91.4 30.35 L 98.7 29.2 L 98.2 34.9 Z M 137.45 34.9 L 121.3 37.4 L 127.85 1.85 L 143.65 0.5 Q 143.3 1.6 143.05 2.75 A 48.691 48.691 0 0 0 142.632 4.47 A 53.71 53.71 0 0 0 142.575 4.725 A 75.643 75.643 0 0 0 142.392 5.579 Q 142.311 5.97 142.244 6.321 A 43.627 43.627 0 0 0 142.2 6.55 A 10.114 10.114 0 0 1 141.923 6.573 Q 141.469 6.606 140.775 6.625 Q 139.85 6.65 138.8 6.675 Q 137.75 6.7 136.675 6.7 L 134.8 6.7 L 133.05 15.65 Q 134.6 15.55 135.95 15.5 Q 137.05 15.45 138.2 15.45 Q 139.329 15.45 139.88 15.402 A 6.036 6.036 0 0 0 139.9 15.4 Q 139.7 16.8 139.525 18.15 Q 139.35 19.5 139.1 20.9 A 8.881 8.881 0 0 1 138.811 20.923 Q 138.343 20.955 137.558 20.973 A 63.227 63.227 0 0 1 137.475 20.975 Q 136.35 21 135.2 21.05 Q 133.9 21.1 132.35 21.15 L 130.65 30.35 L 137.95 29.2 L 137.45 34.9 Z M 55 36 L 46 37.4 Q 47.15 31.9 48.2 26.55 Q 48.65 24.3 49.1 21.85 Q 49.55 19.4 49.975 17.025 A 149.538 149.538 0 0 0 50.556 13.547 A 134.449 134.449 0 0 0 50.725 12.425 A 443.444 443.444 0 0 0 51.031 10.294 A 335.576 335.576 0 0 0 51.3 8.35 Q 50.15 8.2 48.975 8.25 Q 47.8 8.3 46.65 7.95 A 23.836 23.836 0 0 0 46.684 7.202 Q 46.7 6.691 46.7 6.1 Q 46.7 5.05 46.75 4 Q 46.8 2.85 46.85 1.55 Q 48.15 1.65 49.45 1.7 Q 50.75 1.75 52.05 1.75 A 96.257 96.257 0 0 0 55.777 1.68 A 86.671 86.671 0 0 0 56.975 1.625 Q 59.35 1.5 61.375 1.325 Q 63.4 1.15 65.35 0.9 L 64.8 3.6 Q 64.55 4.75 64.325 5.95 A 63.256 63.256 0 0 1 64.16 6.801 Q 64.025 7.469 63.9 8 Q 62.8 8.3 61.675 8.425 Q 60.55 8.55 59.45 8.75 Q 59.1 10.45 58.7 12.525 A 184.084 184.084 0 0 0 58.019 16.271 A 202.886 202.886 0 0 0 57.925 16.825 Q 57.55 19.05 57.2 21.35 Q 56.85 23.65 56.5 25.75 A 354.259 354.259 0 0 0 55.177 34.68 A 389.712 389.712 0 0 0 55 36 Z M 28.1 2.35 L 35.9 1.1 Q 34.75 7.8 33.65 14.25 A 2206.189 2206.189 0 0 0 32.961 18.488 A 2447.269 2447.269 0 0 0 32.725 19.95 Q 32.25 22.9 31.775 25.8 A 347.336 347.336 0 0 0 31.001 30.741 A 314.818 314.818 0 0 0 30.9 31.425 Q 30.5 34.15 30.15 36.35 A 5.74 5.74 0 0 0 29.911 36.356 Q 29.41 36.377 28.375 36.475 A 90.06 90.06 0 0 0 25.825 36.753 A 98.322 98.322 0 0 0 25.65 36.775 Q 24.272 36.947 23.161 37.095 A 200.67 200.67 0 0 0 23.125 37.1 A 59.437 59.437 0 0 0 22.86 37.136 Q 21.996 37.255 21.902 37.299 A 0.075 0.075 0 0 0 21.9 37.3 A 136.629 136.629 0 0 0 22.406 35.031 A 182.383 182.383 0 0 0 22.925 32.525 A 648.088 648.088 0 0 0 23.727 28.447 A 740.01 740.01 0 0 0 24 27.025 Q 24.55 24.15 25.05 21.2 Q 25.55 18.25 26 15.5 Q 27.05 9.1 28.1 2.35 Z M 148.05 25.5 Q 146.6 25.5 145.15 25.6 L 142.25 25.8 Q 143.8 19.65 145.275 13.55 Q 146.75 7.45 148.35 1.3 Q 149.166 1.171 150.186 1.042 A 86.952 86.952 0 0 1 150.525 1 Q 151.75 0.85 153 0.65 A 78.369 78.369 0 0 1 155.13 0.338 A 70.887 70.887 0 0 1 155.425 0.3 Q 156.6 0.15 157.4 0 Q 154.7 6.3 152.475 12.675 Q 150.25 19.05 148.05 25.5 Z M 148.55 33.35 Q 148.55 34.3 148.125 35.25 Q 147.7 36.2 146.9 36.925 A 5.311 5.311 0 0 1 145.76 37.706 A 6.902 6.902 0 0 1 144.9 38.075 A 7.189 7.189 0 0 1 143.483 38.413 A 9.726 9.726 0 0 1 142.15 38.5 A 4.754 4.754 0 0 1 140.988 38.363 A 4.043 4.043 0 0 1 140.25 38.1 A 3.937 3.937 0 0 1 139.335 37.51 A 3.454 3.454 0 0 1 138.875 37.025 Q 138.35 36.35 138.05 35.5 A 5.121 5.121 0 0 1 137.753 33.973 A 4.82 4.82 0 0 1 137.75 33.8 Q 137.75 32.85 138.05 31.975 Q 138.35 31.1 138.975 30.425 Q 139.6 29.75 140.525 29.3 Q 141.409 28.87 142.636 28.851 A 7.369 7.369 0 0 1 142.75 28.85 Q 144.658 28.85 145.938 29.445 A 4.317 4.317 0 0 1 147.1 30.225 A 5.091 5.091 0 0 1 148.012 31.356 A 3.903 3.903 0 0 1 148.55 33.35 Z M 112.25 7.75 L 110.65 15.7 Q 111.6 15.6 112.975 14.9 Q 114.35 14.2 115.6 13.225 A 16.127 16.127 0 0 0 116.961 12.041 A 13.143 13.143 0 0 0 117.75 11.2 A 5.806 5.806 0 0 0 118.175 10.644 Q 118.65 9.931 118.65 9.35 A 1.4 1.4 0 0 0 118.601 8.969 A 1.05 1.05 0 0 0 118.3 8.475 A 1.823 1.823 0 0 0 117.919 8.207 Q 117.734 8.108 117.508 8.032 A 3.563 3.563 0 0 0 117.325 7.975 Q 116.7 7.8 115.95 7.75 A 23.04 23.04 0 0 0 114.599 7.701 A 25.303 25.303 0 0 0 114.4 7.7 Q 113.85 7.7 113.275 7.725 Q 112.7 7.75 112.25 7.75 Z" vector-effect="non-scaling-stroke"/></g><g id="iam" stroke-linecap="round" fill-rule="evenodd" font-size="9pt" fill="#000"><path d="M 48.45 36.9 L 40.2 37.45 Q 42.4 30.8 44.4 24.4 Q 45.25 21.7 46.15 18.75 Q 47.05 15.8 47.95 12.9 A 281.576 281.576 0 0 0 49.23 8.663 A 250.334 250.334 0 0 0 49.625 7.3 Q 50.4 4.6 51 2.3 A 45.06 45.06 0 0 0 54.639 2.158 A 38.322 38.322 0 0 0 56.2 2 Q 58.65 1.7 61.5 1.45 Q 61.355 2.515 61.186 3.837 A 384.974 384.974 0 0 0 61.175 3.925 A 126.048 126.048 0 0 1 60.884 6.058 A 144.097 144.097 0 0 1 60.775 6.8 Q 60.55 8.3 60.3 9.9 Q 60.076 11.331 59.773 13.483 A 467.452 467.452 0 0 0 59.7 14 Q 59.35 16.5 58.75 20.25 L 59.4 20.25 Q 60.85 16.45 61.8 13.925 Q 62.75 11.4 63.35 9.8 Q 63.95 8.2 64.575 6.675 Q 65.2 5.15 65.775 3.775 A 68.122 68.122 0 0 1 66.264 2.634 Q 66.493 2.114 66.708 1.652 A 39.821 39.821 0 0 1 66.85 1.35 A 45.554 45.554 0 0 0 68.354 1.205 A 37.914 37.914 0 0 0 69.2 1.1 Q 70.3 0.95 71.4 0.775 Q 72.5 0.6 73.625 0.425 A 76.187 76.187 0 0 0 74.806 0.231 A 100.847 100.847 0 0 0 76.1 0 Q 75.6 2.9 75.15 5.95 Q 74.7 9 74.35 12.025 Q 74 15.05 73.675 18 A 390.555 390.555 0 0 0 73.369 20.875 A 331.741 331.741 0 0 0 73.1 23.6 Q 72.5 29.8 72.05 35.7 L 63.35 37.25 A 3.769 3.769 0 0 1 63.353 37.126 Q 63.363 36.82 63.416 36.038 A 132.88 132.88 0 0 1 63.425 35.9 A 195.575 195.575 0 0 1 63.488 35.005 Q 63.547 34.2 63.625 33.2 Q 63.75 31.6 63.975 29.65 L 64.425 25.75 A 181.232 181.232 0 0 1 64.838 22.433 A 164.564 164.564 0 0 1 64.9 21.975 Q 65.091 20.578 65.283 19.488 A 40.402 40.402 0 0 1 65.4 18.85 L 64.95 18.85 Q 64.25 20.95 63.4 23.275 Q 62.55 25.6 61.675 28 Q 60.8 30.4 59.95 32.7 Q 59.1 35 58.45 37.1 A 132.283 132.283 0 0 0 57.208 37.141 Q 56.231 37.178 55.45 37.225 Q 54.376 37.289 53.006 37.372 A 6864.385 6864.385 0 0 0 52.55 37.4 L 54.15 18.85 L 53.4 18.85 A 8.505 8.505 0 0 1 53.331 19.23 Q 53.214 19.813 52.961 20.789 A 67.952 67.952 0 0 1 52.9 21.025 A 889.555 889.555 0 0 1 52.526 22.446 Q 52.27 23.414 51.975 24.525 A 268.92 268.92 0 0 1 51.145 27.572 A 301.735 301.735 0 0 1 50.85 28.625 A 937.762 937.762 0 0 1 50.269 30.675 A 748.191 748.191 0 0 1 49.725 32.575 A 546.286 546.286 0 0 1 49.473 33.447 Q 49.113 34.694 48.85 35.575 A 498.692 498.692 0 0 1 48.767 35.853 Q 48.511 36.71 48.457 36.88 A 2.118 2.118 0 0 1 48.45 36.9 Z M 33.9 29.2 L 29.55 29.2 L 27.55 36.4 A 102.333 102.333 0 0 1 26.669 36.516 Q 25.888 36.616 24.95 36.725 A 2487.836 2487.836 0 0 1 23.5 36.894 A 2007.293 2007.293 0 0 1 22.15 37.05 Q 20.55 37.25 19 37.45 Q 21 30.8 22.95 24.35 A 19785.848 19785.848 0 0 1 24.192 20.159 A 22556.1 22556.1 0 0 1 24.625 18.7 Q 25.5 15.75 26.375 12.825 A 2314.462 2314.462 0 0 0 27.645 8.564 A 2047.73 2047.73 0 0 0 28.05 7.2 Q 28.85 4.5 29.45 2.25 Q 32.85 2 36.375 1.65 Q 39.9 1.3 43.25 0.7 A 129.616 129.616 0 0 0 43.173 1.548 Q 43.058 2.872 42.929 4.619 A 357.84 357.84 0 0 0 42.925 4.675 A 229.915 229.915 0 0 0 42.756 7.156 A 293.661 293.661 0 0 0 42.6 9.85 Q 42.45 12.65 42.3 15.7 Q 42.15 18.75 42 21.7 Q 41.75 28.6 41.45 36.35 Q 39.95 36.6 38.45 36.75 Q 37.2 36.95 35.7 37.2 L 33 37.65 Q 33.2 36 33.4 34.4 Q 33.55 33 33.675 31.6 A 313.744 313.744 0 0 1 33.765 30.606 Q 33.838 29.825 33.9 29.2 Z M 7.2 2.75 L 15 1.5 Q 13.7 8.2 12.4 14.65 Q 11.85 17.4 11.275 20.35 Q 10.7 23.3 10.175 26.2 A 512.605 512.605 0 0 1 9.191 31.484 A 467.229 467.229 0 0 1 9.125 31.825 Q 8.6 34.55 8.2 36.75 Q 7.832 36.75 6.898 36.833 A 65.692 65.692 0 0 0 6.45 36.875 A 92.715 92.715 0 0 0 4.444 37.091 A 104.016 104.016 0 0 0 3.75 37.175 Q 2.372 37.347 1.261 37.495 A 200.67 200.67 0 0 0 1.225 37.5 A 59.437 59.437 0 0 0 0.96 37.536 Q 0.096 37.655 0.002 37.699 A 0.075 0.075 0 0 0 0 37.7 A 90.645 90.645 0 0 0 0.6 35.431 A 120.049 120.049 0 0 0 1.2 32.925 A 512.544 512.544 0 0 0 2.114 28.847 A 584.622 584.622 0 0 0 2.425 27.425 Q 3.05 24.55 3.625 21.6 A 1203.789 1203.789 0 0 1 4.612 16.591 A 1084.495 1084.495 0 0 1 4.75 15.9 Q 6 9.5 7.2 2.75 Z M 33.85 11.65 L 30.75 24.2 Q 30.95 24.2 31.475 24.175 Q 32 24.15 32.575 24.125 Q 33.15 24.1 33.65 24.075 A 9.933 9.933 0 0 0 33.881 24.061 Q 34.193 24.038 34.343 24.002 A 0.897 0.897 0 0 0 34.35 24 A 3.896 3.896 0 0 1 34.355 23.823 Q 34.367 23.551 34.414 23.087 A 32.07 32.07 0 0 1 34.425 22.975 A 62.131 62.131 0 0 0 34.495 22.251 Q 34.53 21.871 34.565 21.447 A 104.348 104.348 0 0 0 34.575 21.325 A 183.644 183.644 0 0 1 34.656 20.356 A 238.375 238.375 0 0 1 34.75 19.3 Q 34.85 18.2 34.95 17.15 Q 35.15 14.6 35.45 11.65 L 35.75 7.3 L 35 7.35 L 33.85 11.65 Z" vector-effect="non-scaling-stroke"/></g><g id='name' stroke-linecap="round" fill-rule="evenodd" font-size="9pt" fill="#2283d2"><path d="M 325.94 62.006 L 313.384 64.93 A 3102.142 3102.142 0 0 0 317.701 43.851 A 2806.377 2806.377 0 0 0 318.286 40.936 A 817.987 817.987 0 0 1 319.89 31.944 A 906.131 906.131 0 0 1 320.135 30.616 Q 321.124 25.284 321.984 20.081 A 506.317 506.317 0 0 0 323.177 12.518 A 442.244 442.244 0 0 0 323.532 10.105 A 189.223 189.223 0 0 0 324.13 5.592 Q 324.387 3.446 324.559 1.523 A 116.154 116.154 0 0 0 324.564 1.462 Q 325.682 1.548 326.456 1.548 L 328.262 1.548 A 84.908 84.908 0 0 0 329.238 1.542 Q 329.674 1.537 330.161 1.528 A 170.227 170.227 0 0 0 331.186 1.505 Q 332.906 1.462 334.626 1.376 Q 336.346 1.29 338.324 1.204 Q 339.528 7.224 340.474 12.814 Q 341.42 17.716 342.409 22.876 A 578.852 578.852 0 0 0 343.121 26.528 Q 343.404 27.959 343.667 29.239 A 289.354 289.354 0 0 0 344.172 31.648 A 298.053 298.053 0 0 0 344.489 30.036 Q 344.704 28.931 344.946 27.649 Q 345.376 25.37 345.892 22.876 Q 346.408 20.382 346.881 17.845 Q 347.354 15.308 347.87 12.814 A 6120.517 6120.517 0 0 1 350.203 2.03 A 6677.205 6677.205 0 0 1 350.364 1.29 L 360.856 0 Q 357.932 13.158 355.696 24.94 Q 354.664 30.014 353.675 35.217 A 1096.886 1096.886 0 0 0 352.264 42.78 A 960.103 960.103 0 0 0 351.826 45.193 Q 350.966 49.966 350.364 54.051 Q 349.777 58.037 349.435 60.754 A 173.604 173.604 0 0 0 349.418 60.888 A 1.249 1.249 0 0 0 349.268 60.902 Q 348.829 60.961 347.397 61.275 Q 345.634 61.662 343.355 62.178 L 338.797 63.21 A 52.266 52.266 0 0 0 337.73 63.463 Q 336.603 63.743 335.848 63.996 A 10.891 10.891 0 0 0 335.4 64.156 Q 334.884 57.276 334.282 51.084 Q 334.024 48.418 333.723 45.623 A 220.726 220.726 0 0 0 333.247 41.551 A 196.487 196.487 0 0 0 333.078 40.248 Q 332.734 37.668 332.39 35.432 Q 332.046 33.196 331.702 31.562 A 73.016 73.016 0 0 1 331.484 32.86 Q 331.283 34.002 331.014 35.346 Q 330.584 37.496 330.154 39.904 Q 329.724 42.312 329.294 44.935 A 108.497 108.497 0 0 1 328.601 48.749 A 96.708 96.708 0 0 1 328.348 49.966 A 1080.615 1080.615 0 0 1 326.574 58.899 A 1231.523 1231.523 0 0 1 325.94 62.006 Z M 402.05 62.006 L 389.494 64.93 A 3102.142 3102.142 0 0 0 393.811 43.851 A 2806.377 2806.377 0 0 0 394.396 40.936 A 817.987 817.987 0 0 1 396 31.944 A 906.131 906.131 0 0 1 396.245 30.616 Q 397.234 25.284 398.094 20.081 A 506.317 506.317 0 0 0 399.287 12.518 A 442.244 442.244 0 0 0 399.642 10.105 A 189.223 189.223 0 0 0 400.24 5.592 Q 400.497 3.446 400.669 1.523 A 116.154 116.154 0 0 0 400.674 1.462 Q 401.792 1.548 402.566 1.548 L 404.372 1.548 A 84.908 84.908 0 0 0 405.348 1.542 Q 405.784 1.537 406.271 1.528 A 170.227 170.227 0 0 0 407.296 1.505 Q 409.016 1.462 410.736 1.376 Q 412.456 1.29 414.434 1.204 Q 415.638 7.224 416.584 12.814 Q 417.53 17.716 418.519 22.876 A 578.852 578.852 0 0 0 419.231 26.528 Q 419.514 27.959 419.777 29.239 A 289.354 289.354 0 0 0 420.282 31.648 A 298.053 298.053 0 0 0 420.599 30.036 Q 420.814 28.931 421.056 27.649 Q 421.486 25.37 422.002 22.876 Q 422.518 20.382 422.991 17.845 Q 423.464 15.308 423.98 12.814 A 6120.517 6120.517 0 0 1 426.313 2.03 A 6677.205 6677.205 0 0 1 426.474 1.29 L 436.966 0 Q 434.042 13.158 431.806 24.94 Q 430.774 30.014 429.785 35.217 A 1096.886 1096.886 0 0 0 428.374 42.78 A 960.103 960.103 0 0 0 427.936 45.193 Q 427.076 49.966 426.474 54.051 Q 425.887 58.037 425.545 60.754 A 173.604 173.604 0 0 0 425.528 60.888 A 1.249 1.249 0 0 0 425.378 60.902 Q 424.939 60.961 423.507 61.275 Q 421.744 61.662 419.465 62.178 L 414.907 63.21 A 52.266 52.266 0 0 0 413.84 63.463 Q 412.713 63.743 411.958 63.996 A 10.891 10.891 0 0 0 411.51 64.156 Q 410.994 57.276 410.392 51.084 Q 410.134 48.418 409.833 45.623 A 220.726 220.726 0 0 0 409.357 41.551 A 196.487 196.487 0 0 0 409.188 40.248 Q 408.844 37.668 408.5 35.432 Q 408.156 33.196 407.812 31.562 A 73.016 73.016 0 0 1 407.594 32.86 Q 407.393 34.002 407.124 35.346 Q 406.694 37.496 406.264 39.904 Q 405.834 42.312 405.404 44.935 A 108.497 108.497 0 0 1 404.711 48.749 A 96.708 96.708 0 0 1 404.458 49.966 A 1080.615 1080.615 0 0 1 402.684 58.899 A 1231.523 1231.523 0 0 1 402.05 62.006 Z M 119.798 61.92 L 106.554 64.672 Q 108.962 52.632 111.198 41.194 Q 112.058 36.292 113.004 31.003 Q 113.95 25.714 114.767 20.554 A 1331.581 1331.581 0 0 0 116.131 11.754 A 1213.874 1213.874 0 0 0 116.315 10.535 Q 117.046 5.676 117.476 1.72 A 124.623 124.623 0 0 1 119.379 1.817 A 97.613 97.613 0 0 1 121.131 1.935 Q 122.808 2.064 124.442 2.15 Q 126.076 2.236 127.753 2.279 A 126.517 126.517 0 0 0 129.505 2.311 A 161.936 161.936 0 0 0 131.408 2.322 Q 129.946 8.428 128.527 14.534 Q 127.108 20.64 125.904 26.832 L 134.418 25.886 A 401.705 401.705 0 0 0 136.079 16.945 A 360.861 360.861 0 0 0 136.568 14.061 Q 137.514 8.342 139.062 2.236 A 46.502 46.502 0 0 1 141.147 1.924 A 61.434 61.434 0 0 1 143.448 1.677 A 855.969 855.969 0 0 1 145.77 1.473 A 678.858 678.858 0 0 1 147.92 1.29 A 667.657 667.657 0 0 0 149.377 1.167 Q 149.947 1.118 150.453 1.074 A 319.847 319.847 0 0 0 151.403 0.989 L 152.822 0.86 A 110.449 110.449 0 0 0 151.508 5.445 A 138.913 138.913 0 0 0 150.543 9.331 A 406.24 406.24 0 0 0 148.695 17.646 A 448.65 448.65 0 0 0 148.436 18.877 Q 147.404 23.822 146.458 28.896 Q 145.512 33.97 144.738 38.528 Q 142.846 49.45 141.212 60.888 L 127.796 62.436 Q 128.914 57.276 129.774 52.374 A 1387.253 1387.253 0 0 0 131.088 45.989 A 1559.801 1559.801 0 0 0 131.537 43.774 Q 132.44 39.302 132.956 36.12 L 124.614 36.894 A 1101.929 1101.929 0 0 1 124.046 39.951 Q 123.752 41.52 123.421 43.273 A 1958.596 1958.596 0 0 1 123.195 44.462 Q 122.378 48.762 121.69 52.632 L 119.798 61.92 Z M 158.326 62.522 L 144.394 64.586 Q 146.974 52.546 149.21 41.194 Q 150.07 36.292 151.016 31.046 Q 151.962 25.8 152.779 20.64 A 409.244 409.244 0 0 0 154.077 11.84 A 371.609 371.609 0 0 0 154.241 10.621 A 231.028 231.028 0 0 0 154.811 5.988 A 168.563 168.563 0 0 0 155.23 1.806 Q 157.208 1.978 159.702 2.107 A 185.06 185.06 0 0 1 162.11 2.247 A 148.569 148.569 0 0 1 164.346 2.408 Q 166.926 2.58 169.506 2.58 A 6.898 6.898 0 0 0 169.461 2.774 Q 169.399 3.059 169.307 3.55 A 67.193 67.193 0 0 0 169.248 3.87 A 150.042 150.042 0 0 1 169.107 4.634 Q 168.979 5.316 168.818 6.149 A 289.539 289.539 0 0 0 168.549 7.557 A 391.728 391.728 0 0 0 168.259 9.116 Q 167.958 10.75 167.614 12.384 L 166.066 20.898 L 166.582 20.812 A 139.533 139.533 0 0 1 167.058 20.057 Q 167.84 18.823 169.033 16.985 Q 170.624 14.534 172.344 11.782 A 473.899 473.899 0 0 1 174.876 7.775 A 424.565 424.565 0 0 1 175.698 6.493 A 403.545 403.545 0 0 0 176.851 4.693 Q 177.301 3.986 177.701 3.35 A 202.156 202.156 0 0 0 178.45 2.15 Q 182.75 1.806 187.05 1.376 Q 191.35 0.946 195.65 0.258 Q 191.608 5.676 187.824 10.922 A 249.456 249.456 0 0 0 184.722 15.266 A 271.816 271.816 0 0 0 184.513 15.566 Q 182.836 17.974 181.202 20.296 A 195.492 195.492 0 0 0 179.622 22.575 A 168.954 168.954 0 0 0 178.149 24.768 A 187.805 187.805 0 0 0 176.805 26.832 A 140.683 140.683 0 0 0 175.612 28.724 Q 177.504 37.41 180.084 45.494 Q 182.664 53.578 185.33 62.006 Q 183.352 61.92 181.288 61.877 Q 179.224 61.834 177.246 61.834 A 267.406 267.406 0 0 0 173.602 61.858 A 240.107 240.107 0 0 0 172.43 61.877 A 294.258 294.258 0 0 0 168.85 61.966 A 327.49 327.49 0 0 0 167.614 62.006 A 1343.062 1343.062 0 0 0 166.808 56.276 A 1552.021 1552.021 0 0 0 165.937 50.267 A 1552.076 1552.076 0 0 1 165.066 44.258 A 1343.005 1343.005 0 0 1 164.26 38.528 L 162.712 40.334 Q 162.298 42.108 161.823 44.451 A 251.106 251.106 0 0 0 161.379 46.698 A 4093.012 4093.012 0 0 1 160.307 52.229 A 3681.317 3681.317 0 0 1 159.96 54.008 A 1036.422 1036.422 0 0 1 158.54 61.43 A 1137.053 1137.053 0 0 1 158.326 62.522 Z M 64.414 3.01 L 77.486 2.15 L 77.056 4.386 Q 76.671 6.386 76.08 9.556 A 1931.145 1931.145 0 0 0 75.938 10.32 A 550.898 550.898 0 0 0 75.265 14.014 Q 74.917 15.957 74.541 18.124 A 928.897 928.897 0 0 0 74.433 18.748 A 347.562 347.562 0 0 1 73.087 26.061 A 393.765 393.765 0 0 1 72.584 28.595 Q 71.552 33.712 70.563 38.657 Q 69.574 43.602 68.628 47.73 A 33.07 33.07 0 0 1 67.282 52.004 Q 66.399 54.236 65.24 56.058 A 21.05 21.05 0 0 1 65.231 56.072 A 22.488 22.488 0 0 1 61.935 60.151 A 19.749 19.749 0 0 1 60.071 61.748 A 20.599 20.599 0 0 1 54.375 64.812 A 19.473 19.473 0 0 1 53.75 65.016 Q 50.396 66.048 47.042 66.048 A 13.147 13.147 0 0 1 43.803 65.63 A 15.288 15.288 0 0 1 43 65.403 Q 40.936 64.758 39.302 63.468 A 10.291 10.291 0 0 1 36.879 60.699 A 12.023 12.023 0 0 1 36.593 60.2 A 8.706 8.706 0 0 1 35.669 57.459 A 11.517 11.517 0 0 1 35.518 55.556 L 35.518 54.868 A 2.778 2.778 0 0 1 35.518 54.863 A 2.828 2.828 0 0 1 35.604 54.18 Q 35.948 50.654 36.722 45.666 Q 37.496 40.678 38.356 35.26 Q 39.216 29.842 40.248 24.381 A 1944.331 1944.331 0 0 0 41.226 19.167 A 1439.266 1439.266 0 0 0 42.097 14.448 A 616.362 616.362 0 0 1 42.492 12.306 Q 43.046 9.333 43.487 7.153 A 210.782 210.782 0 0 1 43.516 7.009 A 460.865 460.865 0 0 1 43.727 5.976 Q 44.15 3.913 44.29 3.354 Q 46.096 3.182 48.59 2.924 Q 51.084 2.666 53.234 2.494 Q 55.9 2.236 58.48 1.978 Q 56.244 12.384 54.524 20.812 Q 53.75 24.424 53.019 28.036 Q 52.288 31.648 51.643 34.658 A 5392.769 5392.769 0 0 1 51.183 36.801 Q 51.002 37.645 50.837 38.411 A 2891.157 2891.157 0 0 1 50.525 39.861 A 2119.351 2119.351 0 0 1 50.299 40.906 Q 50.022 42.188 49.816 43.131 A 662.31 662.31 0 0 1 49.751 43.43 Q 49.465 44.737 49.101 46.705 A 188.257 188.257 0 0 0 49.063 46.913 Q 48.689 48.95 48.676 50.625 A 15.456 15.456 0 0 0 48.676 50.74 A 4.528 4.528 0 0 0 48.787 51.771 A 3.252 3.252 0 0 0 49.364 53.019 Q 50.052 53.922 51.084 53.922 A 2.94 2.94 0 0 0 53.306 52.973 A 3.752 3.752 0 0 0 53.492 52.761 A 9.544 9.544 0 0 0 54.533 51.17 A 12.22 12.22 0 0 0 55.083 49.966 Q 55.728 48.332 56.029 46.655 A 56.693 56.693 0 0 1 56.177 45.862 Q 56.395 44.742 56.588 44.032 Q 57.104 41.538 57.749 38.485 Q 58.394 35.432 59.039 32.121 Q 59.684 28.81 60.329 25.37 Q 60.974 21.93 61.576 18.662 A 707.706 707.706 0 0 0 64.069 5.023 A 776.02 776.02 0 0 0 64.414 3.01 Z M 70.09 56.932 L 76.454 44.462 A 7.575 7.575 0 0 0 77.123 45.484 Q 77.482 45.951 77.942 46.424 A 13.66 13.66 0 0 0 78.26 46.741 Q 79.464 47.902 80.969 48.762 Q 82.474 49.622 83.979 50.181 Q 85.484 50.74 86.688 50.74 A 6.881 6.881 0 0 0 88.146 50.578 A 8.393 8.393 0 0 0 88.838 50.396 Q 89.956 50.052 90.902 49.364 A 5.953 5.953 0 0 0 91.966 48.381 A 5.202 5.202 0 0 0 92.407 47.773 A 3.727 3.727 0 0 0 92.931 46.249 A 4.744 4.744 0 0 0 92.966 45.666 A 6.156 6.156 0 0 0 91.797 42.064 A 7.664 7.664 0 0 0 91.633 41.839 A 17.762 17.762 0 0 0 89.715 39.702 A 21.968 21.968 0 0 0 88.322 38.485 A 79.644 79.644 0 0 0 85.44 36.277 A 94.12 94.12 0 0 0 84.022 35.26 A 40.352 40.352 0 0 1 80.317 32.325 A 36.429 36.429 0 0 1 79.765 31.82 Q 77.83 30.014 76.454 27.778 Q 75.078 25.542 75.078 22.79 A 14.421 14.421 0 0 1 77.739 14.456 A 17.328 17.328 0 0 1 77.744 14.448 Q 80.41 10.578 84.409 7.783 Q 88.408 4.988 93.138 3.354 A 31.241 31.241 0 0 1 97.879 2.103 A 24.062 24.062 0 0 1 102.082 1.72 A 17.241 17.241 0 0 1 105.42 2.034 A 15.373 15.373 0 0 1 106.468 2.279 Q 108.532 2.838 110.037 4.085 A 8.994 8.994 0 0 1 112.27 6.875 A 10.481 10.481 0 0 1 112.445 7.224 A 8.55 8.55 0 0 1 113.078 9.133 Q 113.348 10.402 113.348 11.954 Q 113.348 13.158 113.133 14.362 A 46.56 46.56 0 0 0 112.881 15.934 A 56.151 56.151 0 0 0 112.746 16.942 L 100.276 20.554 Q 100.448 19.866 100.577 19.178 Q 100.706 18.49 100.706 17.802 A 11.699 11.699 0 0 0 100.638 16.497 Q 100.459 14.905 99.803 14.061 A 3.021 3.021 0 0 0 98.838 13.23 Q 98.218 12.9 97.438 12.9 Q 96.75 12.9 95.761 13.416 A 10.549 10.549 0 0 0 94.525 14.179 A 13.049 13.049 0 0 0 93.783 14.749 Q 92.794 15.566 92.106 16.684 Q 91.418 17.802 91.418 19.092 A 6.045 6.045 0 0 0 91.632 20.739 A 4.744 4.744 0 0 0 92.579 22.532 A 13.675 13.675 0 0 0 94.202 24.145 A 17.307 17.307 0 0 0 95.46 25.112 A 72.281 72.281 0 0 0 97.728 26.634 A 86.866 86.866 0 0 0 99.201 27.563 A 15.771 15.771 0 0 1 102.119 29.901 A 18.566 18.566 0 0 1 102.942 30.788 A 14.73 14.73 0 0 1 104.678 33.287 A 19.887 19.887 0 0 1 105.823 35.733 A 15.101 15.101 0 0 1 106.575 38.406 Q 106.831 39.747 106.926 41.307 A 31.813 31.813 0 0 1 106.984 43.258 A 21.666 21.666 0 0 1 106.332 48.659 A 18.572 18.572 0 0 1 105.135 51.987 Q 103.286 55.9 100.147 58.738 A 21.969 21.969 0 0 1 93.539 62.822 A 25.266 25.266 0 0 1 92.751 63.124 Q 88.494 64.672 83.592 64.672 A 13.636 13.636 0 0 1 78.647 63.717 A 17.121 17.121 0 0 1 76.712 62.823 A 17.523 17.523 0 0 1 73.544 60.608 Q 72.221 59.461 70.94 57.967 A 31.95 31.95 0 0 1 70.09 56.932 Z M 235.038 60.974 L 221.106 64.586 Q 223.428 53.148 225.578 42.226 Q 226.352 37.582 227.298 32.551 Q 228.244 27.52 229.061 22.575 Q 229.878 17.63 230.609 13.029 A 222.933 222.933 0 0 0 231.265 8.632 A 164.861 164.861 0 0 0 231.77 4.644 A 57.953 57.953 0 0 1 238.876 2.902 A 68.274 68.274 0 0 1 242.348 2.365 Q 248.024 1.634 253.614 1.634 Q 256.145 1.634 258.015 2.075 A 11.086 11.086 0 0 1 259.161 2.408 A 9.787 9.787 0 0 1 260.871 3.192 A 7.013 7.013 0 0 1 262.601 4.601 Q 263.848 6.02 264.364 7.912 A 14.33 14.33 0 0 1 264.781 10.177 A 18.537 18.537 0 0 1 264.88 12.126 Q 264.88 15.566 263.676 18.877 Q 262.472 22.188 260.451 25.155 Q 258.43 28.122 255.807 30.573 A 25.156 25.156 0 0 1 250.735 34.274 A 23.454 23.454 0 0 1 250.174 34.572 A 472.839 472.839 0 0 1 251.776 38.173 A 605.463 605.463 0 0 1 253.485 42.097 A 833.528 833.528 0 0 1 255.194 46.085 A 712.978 712.978 0 0 1 256.796 49.88 Q 258.516 54.18 260.322 58.48 L 246.992 63.124 Q 245.272 57.62 243.896 52.804 A 247.261 247.261 0 0 1 242.767 48.982 A 269.507 269.507 0 0 1 242.692 48.719 A 375.209 375.209 0 0 1 242.112 46.666 A 317.696 317.696 0 0 1 241.574 44.72 Q 241.058 42.828 240.714 41.323 A 31.067 31.067 0 0 1 240.524 40.437 Q 240.349 39.552 240.288 38.914 A 8.911 8.911 0 0 1 240.284 38.872 L 239.166 39.216 A 511.569 511.569 0 0 1 238.749 41.413 Q 238.562 42.384 238.355 43.447 A 914.425 914.425 0 0 1 237.919 45.666 A 341.385 341.385 0 0 0 236.895 51.068 A 304.178 304.178 0 0 0 236.586 52.804 Q 235.812 56.846 235.038 60.974 Z M 207.346 49.794 L 199.864 49.794 L 196.424 62.178 A 176.013 176.013 0 0 1 194.908 62.378 Q 194.236 62.463 193.497 62.553 A 320.965 320.965 0 0 1 191.952 62.737 A 4280.28 4280.28 0 0 1 189.458 63.027 A 3451.661 3451.661 0 0 1 187.136 63.296 Q 184.384 63.64 181.718 63.984 Q 185.158 52.546 188.512 41.452 A 34036.107 34036.107 0 0 1 190.649 34.244 A 38842.815 38842.815 0 0 1 191.393 31.734 Q 192.898 26.66 194.403 21.629 A 3981.057 3981.057 0 0 0 196.588 14.3 A 3523.499 3523.499 0 0 0 197.284 11.954 Q 198.66 7.31 199.692 3.44 Q 205.54 3.01 211.603 2.408 Q 217.666 1.806 223.428 0.774 A 222.953 222.953 0 0 0 223.296 2.233 Q 223.095 4.547 222.869 7.611 A 395.452 395.452 0 0 0 222.579 11.879 A 505.076 505.076 0 0 0 222.31 16.512 Q 222.052 21.328 221.794 26.574 Q 221.536 31.82 221.278 36.894 Q 220.848 48.762 220.332 62.092 Q 217.752 62.522 215.172 62.78 Q 213.022 63.124 210.442 63.554 L 205.798 64.328 Q 206.142 61.49 206.486 58.738 Q 206.744 56.33 206.959 53.922 A 539.651 539.651 0 0 1 207.114 52.213 Q 207.239 50.869 207.346 49.794 Z M 299.538 49.794 L 292.056 49.794 L 288.616 62.178 A 176.013 176.013 0 0 1 287.1 62.378 Q 286.428 62.463 285.689 62.553 A 320.965 320.965 0 0 1 284.144 62.737 A 4280.28 4280.28 0 0 1 281.65 63.027 A 3451.661 3451.661 0 0 1 279.328 63.296 Q 276.576 63.64 273.91 63.984 Q 277.35 52.546 280.704 41.452 A 34036.107 34036.107 0 0 1 282.841 34.244 A 38842.815 38842.815 0 0 1 283.585 31.734 Q 285.09 26.66 286.595 21.629 A 3981.057 3981.057 0 0 0 288.78 14.3 A 3523.499 3523.499 0 0 0 289.476 11.954 Q 290.852 7.31 291.884 3.44 Q 297.732 3.01 303.795 2.408 Q 309.858 1.806 315.62 0.774 A 222.953 222.953 0 0 0 315.488 2.233 Q 315.287 4.547 315.061 7.611 A 395.452 395.452 0 0 0 314.771 11.879 A 505.076 505.076 0 0 0 314.502 16.512 Q 314.244 21.328 313.986 26.574 Q 313.728 31.82 313.47 36.894 Q 313.04 48.762 312.524 62.092 Q 309.944 62.522 307.364 62.78 Q 305.214 63.124 302.634 63.554 L 297.99 64.328 Q 298.334 61.49 298.678 58.738 Q 298.936 56.33 299.151 53.922 A 539.651 539.651 0 0 1 299.306 52.213 Q 299.431 50.869 299.538 49.794 Z M 375.648 49.794 L 368.166 49.794 L 364.726 62.178 A 176.013 176.013 0 0 1 363.21 62.378 Q 362.538 62.463 361.799 62.553 A 320.965 320.965 0 0 1 360.254 62.737 A 4280.28 4280.28 0 0 1 357.76 63.027 A 3451.661 3451.661 0 0 1 355.438 63.296 Q 352.686 63.64 350.02 63.984 Q 353.46 52.546 356.814 41.452 A 34036.107 34036.107 0 0 1 358.951 34.244 A 38842.815 38842.815 0 0 1 359.695 31.734 Q 361.2 26.66 362.705 21.629 A 3981.057 3981.057 0 0 0 364.89 14.3 A 3523.499 3523.499 0 0 0 365.586 11.954 Q 366.962 7.31 367.994 3.44 Q 373.842 3.01 379.905 2.408 Q 385.968 1.806 391.73 0.774 A 222.953 222.953 0 0 0 391.598 2.233 Q 391.397 4.547 391.171 7.611 A 395.452 395.452 0 0 0 390.881 11.879 A 505.076 505.076 0 0 0 390.612 16.512 Q 390.354 21.328 390.096 26.574 Q 389.838 31.82 389.58 36.894 Q 389.15 48.762 388.634 62.092 Q 386.054 62.522 383.474 62.78 Q 381.324 63.124 378.744 63.554 L 374.1 64.328 Q 374.444 61.49 374.788 58.738 Q 375.046 56.33 375.261 53.922 A 539.651 539.651 0 0 1 375.416 52.213 Q 375.541 50.869 375.648 49.794 Z M 471.219 26.287 A 35.159 35.159 0 0 0 471.71 20.554 Q 471.71 16.684 470.764 13.244 A 19.442 19.442 0 0 0 470.44 12.184 A 16.546 16.546 0 0 0 467.797 7.224 A 13.007 13.007 0 0 0 466.265 5.582 A 14.339 14.339 0 0 0 462.551 3.182 Q 460.624 2.308 458.189 1.957 A 24.566 24.566 0 0 0 454.682 1.72 Q 450.726 1.72 446.942 2.322 Q 443.158 2.924 439.46 3.612 Q 439.201 5.468 438.866 7.541 A 255.548 255.548 0 0 1 438.127 11.868 A 1323.785 1323.785 0 0 0 437.716 14.174 A 1514.53 1514.53 0 0 0 436.45 21.414 Q 435.59 26.402 434.644 31.519 Q 433.698 36.636 432.838 41.366 Q 430.602 52.632 428.28 64.5 Q 429.484 64.672 430.688 64.801 Q 431.892 64.93 433.096 64.93 Q 438.858 64.93 443.975 62.866 Q 449.092 60.802 453.392 57.405 Q 457.692 54.008 461.089 49.493 Q 464.486 44.978 466.808 40.033 Q 469.13 35.088 470.42 30.057 A 44.217 44.217 0 0 0 471.219 26.287 Z M 14.878 61.662 L 0 64.586 Q 2.58 52.976 4.902 41.882 Q 5.848 37.238 6.88 32.078 Q 7.912 26.918 8.858 21.93 Q 9.804 16.942 10.664 12.298 Q 11.524 7.654 12.126 3.784 A 69.885 69.885 0 0 1 16.953 2.469 A 64.059 64.059 0 0 1 17.028 2.451 Q 19.436 1.892 21.973 1.462 A 31.206 31.206 0 0 1 24.88 1.103 A 25.273 25.273 0 0 1 26.746 1.032 Q 29.99 1.032 32.357 1.938 A 10.508 10.508 0 0 1 33.239 2.322 A 11.918 11.918 0 0 1 36.499 4.643 A 11.088 11.088 0 0 1 37.496 5.805 A 13.322 13.322 0 0 1 39.526 9.848 A 15.856 15.856 0 0 1 39.818 10.922 A 25.976 25.976 0 0 1 40.439 15.146 A 30.83 30.83 0 0 1 40.506 17.2 Q 40.506 22.016 38.743 26.488 Q 36.98 30.96 34.013 34.443 Q 31.046 37.926 27.219 39.99 A 16.717 16.717 0 0 1 20.547 42.004 A 16.275 16.275 0 0 1 19.264 42.054 L 18.318 42.054 Q 17.63 44.978 17.028 48.418 Q 16.426 51.858 15.996 54.782 Q 15.394 58.222 14.878 61.662 Z M 451.414 13.846 Q 450.468 18.92 449.436 23.564 Q 448.404 28.208 447.372 32.938 Q 446.34 37.668 445.308 42.828 Q 444.276 47.988 443.33 54.094 A 16.016 16.016 0 0 0 445.483 52.357 A 21.994 21.994 0 0 0 447.329 50.353 A 33.849 33.849 0 0 0 449.607 47.199 A 42.3 42.3 0 0 0 450.984 44.892 Q 452.704 41.796 454.123 38.356 A 86.392 86.392 0 0 0 456.034 33.293 A 76.355 76.355 0 0 0 456.574 31.648 Q 457.606 28.38 458.165 25.542 Q 458.593 23.369 458.693 21.65 A 17.361 17.361 0 0 0 458.724 20.64 Q 458.724 17.458 456.961 15.652 A 5.347 5.347 0 0 0 454.948 14.386 Q 453.483 13.846 451.414 13.846 Z M 207.26 19.608 L 201.928 41.194 Q 202.272 41.194 203.175 41.151 Q 204.078 41.108 205.067 41.065 Q 206.056 41.022 206.916 40.979 A 17.083 17.083 0 0 0 207.314 40.955 Q 207.862 40.915 208.12 40.85 A 6.702 6.702 0 0 1 208.128 40.546 Q 208.15 40.078 208.229 39.28 A 55.136 55.136 0 0 1 208.249 39.087 A 106.866 106.866 0 0 0 208.37 37.842 Q 208.438 37.094 208.507 36.249 A 315.878 315.878 0 0 1 208.647 34.583 A 409.982 409.982 0 0 1 208.808 32.766 Q 208.98 30.874 209.152 29.068 Q 209.496 24.682 210.012 19.608 L 210.528 12.126 L 209.238 12.212 L 207.26 19.608 Z M 299.452 19.608 L 294.12 41.194 Q 294.464 41.194 295.367 41.151 Q 296.27 41.108 297.259 41.065 Q 298.248 41.022 299.108 40.979 A 17.083 17.083 0 0 0 299.506 40.955 Q 300.054 40.915 300.312 40.85 A 6.702 6.702 0 0 1 300.32 40.546 Q 300.342 40.078 300.421 39.28 A 55.136 55.136 0 0 1 300.441 39.087 A 106.866 106.866 0 0 0 300.562 37.842 Q 300.63 37.094 300.699 36.249 A 315.878 315.878 0 0 1 300.839 34.583 A 409.982 409.982 0 0 1 301 32.766 Q 301.172 30.874 301.344 29.068 Q 301.688 24.682 302.204 19.608 L 302.72 12.126 L 301.43 12.212 L 299.452 19.608 Z M 375.562 19.608 L 370.23 41.194 Q 370.574 41.194 371.477 41.151 Q 372.38 41.108 373.369 41.065 Q 374.358 41.022 375.218 40.979 A 17.083 17.083 0 0 0 375.616 40.955 Q 376.164 40.915 376.422 40.85 A 6.702 6.702 0 0 1 376.43 40.546 Q 376.452 40.078 376.531 39.28 A 55.136 55.136 0 0 1 376.551 39.087 A 106.866 106.866 0 0 0 376.672 37.842 Q 376.74 37.094 376.809 36.249 A 315.878 315.878 0 0 1 376.949 34.583 A 409.982 409.982 0 0 1 377.11 32.766 Q 377.282 30.874 377.454 29.068 Q 377.798 24.682 378.314 19.608 L 378.83 12.126 L 377.54 12.212 L 375.562 19.608 Z M 23.994 11.438 Q 23.048 17.114 22.102 22.188 Q 21.156 27.262 20.038 33.024 A 5.704 5.704 0 0 0 21.267 32.55 Q 21.821 32.264 22.394 31.843 A 11.375 11.375 0 0 0 22.919 31.433 A 12.058 12.058 0 0 0 24.457 29.89 A 16.465 16.465 0 0 0 25.714 28.165 A 16.553 16.553 0 0 0 27.125 25.387 A 20.769 20.769 0 0 0 27.778 23.478 Q 28.552 20.812 28.552 17.888 A 11.421 11.421 0 0 0 28.42 16.093 Q 28.27 15.15 27.948 14.395 A 4.975 4.975 0 0 0 27.133 13.072 Q 25.714 11.438 23.994 11.438 Z M 244.068 13.588 L 241.316 27.262 A 7.398 7.398 0 0 0 242.526 27.022 Q 243.744 26.682 245.267 25.911 A 23.825 23.825 0 0 0 245.315 25.886 Q 247.68 24.682 249.83 23.005 Q 251.98 21.328 253.528 19.522 Q 255.076 17.716 255.076 16.34 A 2.408 2.408 0 0 0 254.991 15.685 A 1.806 1.806 0 0 0 254.474 14.835 Q 253.963 14.361 253.112 14.072 A 6.128 6.128 0 0 0 252.797 13.975 Q 251.722 13.674 250.432 13.588 A 39.629 39.629 0 0 0 248.109 13.503 A 43.524 43.524 0 0 0 247.766 13.502 Q 246.82 13.502 245.831 13.545 A 50.292 50.292 0 0 1 245.007 13.574 Q 244.629 13.585 244.29 13.587 A 29.525 29.525 0 0 1 244.068 13.588 Z" vector-effect="non-scaling-stroke"/></g></def><use href="#hi" x='80px' y='100px' /><use href="#iam" x='150px' y='150px' /><use href="#name" x='250px' y='125px' /></svg>